<?xml version="1.0" encoding="UTF-8" standalone="no"?>
<!-- Created with Inkscape (http://www.inkscape.org/) -->

<svg
   width="500"
   height="500"
   viewBox="0 0 132.29166 132.29167"
   version="1.1"
   id="svg1"
   xml:space="preserve"
   xmlns:inkscape="http://www.inkscape.org/namespaces/inkscape"
   xmlns:sodipodi="http://sodipodi.sourceforge.net/DTD/sodipodi-0.dtd"
   xmlns="http://www.w3.org/2000/svg"
   xmlns:svg="http://www.w3.org/2000/svg"><sodipodi:namedview
     id="namedview1"
     pagecolor="#505050"
     bordercolor="#eeeeee"
     borderopacity="1"
     inkscape:showpageshadow="0"
     inkscape:pageopacity="0"
     inkscape:pagecheckerboard="0"
     inkscape:deskcolor="#505050"
     inkscape:document-units="mm" /><defs
     id="defs1" /><g
     inkscape:label="Layer 1"
     inkscape:groupmode="layer"
     id="layer1"><g
       style="opacity:1"
       id="g1"
       transform="matrix(0.23457037,0,0,0.23457037,6.0959464,6.0958186)"><g
         id="g4">
	<path
   class="st0"
   d="m 259.119,460.031 c 0,13.406 -10.875,24.266 -24.266,24.266 h -51.031 c -13.406,0 -24.266,-10.859 -24.266,-24.266 v -11.203 c 0,-13.406 10.859,-24.266 24.266,-24.266 h 51.031 c 13.391,0 24.266,10.859 24.266,24.266 z"
   style="fill:#b5b5b5"
   id="path1" />
	<path
   class="st0"
   d="m 36.9,365.688 h -4.266 c -13.391,0 -24.266,10.875 -24.266,24.266 v 33.516 c 0,13.406 6.25,24.281 16.953,24.281 h 2.672 c 11.578,0 8.906,10.859 8.906,24.266 v 15.719 C 36.9,501.125 47.775,512 61.166,512 H 98.26 c 13.406,0 24.266,-10.875 24.266,-24.266 V 447.75 389.953 c 0,-13.391 -10.859,-24.266 -24.266,-24.266 H 36.9 Z"
   style="fill:#b5b5b5"
   id="path2" />
	<path
   class="st0"
   d="m 338.322,161.438 c -11.422,0 -21.297,7.969 -23.703,19.125 l -13.563,62.531 c -2.406,11.156 -12.297,19.125 -23.719,19.125 H 125.385 c -13.391,0 -24.266,10.875 -24.266,24.266 v 18.375 c 0,13.391 10.875,24.266 24.266,24.266 h 4.984 c 13.391,0 24.266,10.875 24.266,24.281 v 12.078 c 0,13.391 10.875,24.266 24.266,24.266 h 188.125 c 11.391,0 21.25,-7.938 23.703,-19.094 l 39.313,-179.781 c 1.578,-7.156 -0.188,-14.656 -4.797,-20.375 -4.609,-5.75 -11.563,-9.063 -18.922,-9.063 z"
   style="fill:#b5b5b5"
   id="path3" />
	<path
   class="st0"
   d="m 487.947,108.75 c -2.188,11.422 -12.172,19.688 -23.844,19.688 H 358.588 c -7.234,0 -14.109,-3.203 -18.688,-8.781 -4.625,-5.594 -6.516,-12.938 -5.156,-20.031 L 349.994,19.72 C 352.182,8.281 362.182,0 373.838,0 h 105.531 c 7.234,0 14.078,3.219 18.688,8.813 4.625,5.578 6.5,12.922 5.141,20.031 z"
   style="fill:#b5b5b5"
   id="path4" />
</g></g><text
       xml:space="preserve"
       style="font-style:normal;font-weight:normal;font-size:10.5833px;line-height:1.65;font-family:sans-serif;letter-spacing:2.64583px;fill:#000000;fill-opacity:1;stroke:none;stroke-width:0.264583"
       x="28.225777"
       y="60.83675"
       id="text1"><tspan
         sodipodi:role="line"
         id="tspan1"
         style="font-style:normal;font-variant:normal;font-weight:normal;font-stretch:normal;line-height:1.65;font-family:'Yu Gothic';-inkscape-font-specification:'Yu Gothic';letter-spacing:2.64583px;fill:#1a1a1a;stroke-width:0.264583"
         x="28.225777"
         y="60.83675">地域の悩みを</tspan><tspan
         sodipodi:role="line"
         style="font-style:normal;font-variant:normal;font-weight:normal;font-stretch:normal;line-height:1.65;font-family:'Yu Gothic';-inkscape-font-specification:'Yu Gothic';letter-spacing:2.64583px;fill:#1a1a1a;stroke-width:0.264583"
         x="28.225777"
         y="79.278702"
         id="tspan2">見える化。</tspan></text></g><style
     type="text/css"
     id="style1">

	.st0{fill:#4B4B4B;}

</style></svg>
